<?xml version="1.0" encoding="utf-8"?>
<!-- Generator: Adobe Illustrator 23.0.6, SVG Export Plug-In . SVG Version: 6.00 Build 0)  -->
<svg version="1.1" id="Layer_1" xmlns="http://www.w3.org/2000/svg" xmlns:xlink="http://www.w3.org/1999/xlink" x="0px" y="0px"
	 viewBox="0 0 720 720" style="enable-background:new 0 0 720 720;" xml:space="preserve">
<style type="text/css">
	.st0{fill:#FFFFFF;}
	.st1{fill:none;stroke:#FFFFFF;stroke-width:15.6363;stroke-miterlimit:10;}
	.st2{fill:none;stroke:#FFFFFF;stroke-width:13.0219;stroke-miterlimit:10;}
	.st3{opacity:7.000000e-02;fill:url(#SVGID_1_);enable-background:new    ;}
	.st4{opacity:7.000000e-02;fill:url(#SVGID_2_);enable-background:new    ;}
</style>
<linearGradient id="SVGID_1_" gradientUnits="userSpaceOnUse" x1="-1125.7506" y1="3022.3291" x2="-479.8369" y2="3022.3291" gradientTransform="matrix(6.123234e-17 1 -1 6.123234e-17 3369.064 1199.5806)">
	<stop  offset="0" style="stop-color:#000000"/>
	<stop  offset="6.410000e-02" style="stop-color:#1B1B1C"/>
	<stop  offset="0.1605" style="stop-color:#434345"/>
	<stop  offset="0.2771" style="stop-color:#616265"/>
	<stop  offset="0.4095" style="stop-color:#85878A"/>
	<stop  offset="0.5554" style="stop-color:#B4B6B8"/>
	<stop  offset="0.7102" style="stop-color:#F0F0F1"/>
	<stop  offset="0.7392" style="stop-color:#FFFFFF"/>
</linearGradient>
<path class="st3" d="M259.1,618.4c7.2,0,13-5.7,13-12.8c0-7.1-5.8-12.8-13-12.8c-7.2,0-13,5.7-13,12.8
	C246.1,612.7,251.9,618.4,259.1,618.4z M246.1,547.9c0-7.1,5.8-12.8,13-12.8s13,5.7,13,12.8c0,7.1-5.8,12.8-13,12.8
	S246.1,555,246.1,547.9z M202.3,576.8c0-7.1,5.8-12.8,13-12.8s13,5.7,13,12.8c0,7.1-5.8,12.8-13,12.8S202.3,583.8,202.3,576.8z
	 M158.4,605.6c0-7.1,5.8-12.8,13-12.8s13,5.7,13,12.8c0,7.1-5.8,12.8-13,12.8C164.3,618.4,158.4,612.7,158.4,605.6z M158.4,547.9
	c0-7.1,5.8-12.8,13-12.8s13,5.7,13,12.8c0,7.1-5.8,12.8-13,12.8C164.3,560.7,158.4,555,158.4,547.9z M333.8,605.6
	c0-7.1,5.8-12.8,13-12.8s13,5.7,13,12.8c0,7.1-5.8,12.8-13,12.8S333.8,612.7,333.8,605.6z M333.8,547.9c0-7.1,5.8-12.8,13-12.8
	s13,5.7,13,12.8c0,7.1-5.8,12.8-13,12.8S333.8,555,333.8,547.9z M289.9,576.8c0-7.1,5.8-12.8,13-12.8s13,5.7,13,12.8
	c0,7.1-5.8,12.8-13,12.8S289.9,583.8,289.9,576.8z M246.1,605.6c0-7.1,5.8-12.8,13-12.8s13,5.7,13,12.8c0,7.1-5.8,12.8-13,12.8
	S246.1,612.7,246.1,605.6z M246.1,547.9c0-7.1,5.8-12.8,13-12.8s13,5.7,13,12.8c0,7.1-5.8,12.8-13,12.8S246.1,555,246.1,547.9z
	 M421.4,605.6c0-7.1,5.8-12.8,13-12.8s13,5.7,13,12.8c0,7.1-5.8,12.8-13,12.8C427.2,618.4,421.4,612.7,421.4,605.6z M421.4,547.9
	c0-7.1,5.8-12.8,13-12.8s13,5.7,13,12.8c0,7.1-5.8,12.8-13,12.8C427.2,560.7,421.4,555,421.4,547.9z M377.6,576.8
	c0-7.1,5.8-12.8,13-12.8s13,5.7,13,12.8c0,7.1-5.8,12.8-13,12.8S377.6,583.8,377.6,576.8z M333.8,605.6c0-7.1,5.8-12.8,13-12.8
	s13,5.7,13,12.8c0,7.1-5.8,12.8-13,12.8S333.8,612.7,333.8,605.6z M333.8,547.9c0-7.1,5.8-12.8,13-12.8s13,5.7,13,12.8
	c0,7.1-5.8,12.8-13,12.8S333.8,555,333.8,547.9z M509.1,605.6c0-7.1,5.8-12.8,13-12.8s13,5.7,13,12.8c0,7.1-5.8,12.8-13,12.8
	S509.1,612.7,509.1,605.6z M509.1,547.9c0-7.1,5.8-12.8,13-12.8s13,5.7,13,12.8c0,7.1-5.8,12.8-13,12.8S509.1,555,509.1,547.9z
	 M465.2,576.8c0-7.1,5.8-12.8,13-12.8s13,5.7,13,12.8c0,7.1-5.8,12.8-13,12.8S465.2,583.8,465.2,576.8z M421.4,605.6
	c0-7.1,5.8-12.8,13-12.8s13,5.7,13,12.8c0,7.1-5.8,12.8-13,12.8C427.2,618.4,421.4,612.7,421.4,605.6z M421.4,547.9
	c0-7.1,5.8-12.8,13-12.8s13,5.7,13,12.8c0,7.1-5.8,12.8-13,12.8C427.2,560.7,421.4,555,421.4,547.9z M246.1,547.9
	c0-7.1,5.8-12.8,13-12.8s13,5.7,13,12.8c0,7.1-5.8,12.8-13,12.8S246.1,555,246.1,547.9z M246.1,490.3c0-7.1,5.8-12.8,13-12.8
	s13,5.7,13,12.8c0,7.1-5.8,12.8-13,12.8S246.1,497.3,246.1,490.3z M202.3,519.1c0-7.1,5.8-12.8,13-12.8s13,5.7,13,12.8
	c0,7.1-5.8,12.8-13,12.8S202.3,526.2,202.3,519.1z M158.4,547.9c0-7.1,5.8-12.8,13-12.8s13,5.7,13,12.8c0,7.1-5.8,12.8-13,12.8
	C164.3,560.7,158.4,555,158.4,547.9z M158.4,490.3c0-7.1,5.8-12.8,13-12.8s13,5.7,13,12.8c0,7.1-5.8,12.8-13,12.8
	C164.3,503.1,158.4,497.3,158.4,490.3z M333.8,547.9c0-7.1,5.8-12.8,13-12.8s13,5.7,13,12.8c0,7.1-5.8,12.8-13,12.8
	S333.8,555,333.8,547.9z M333.8,490.3c0-7.1,5.8-12.8,13-12.8s13,5.7,13,12.8c0,7.1-5.8,12.8-13,12.8S333.8,497.3,333.8,490.3z
	 M289.9,519.1c0-7.1,5.8-12.8,13-12.8s13,5.7,13,12.8c0,7.1-5.8,12.8-13,12.8S289.9,526.2,289.9,519.1z M246.1,547.9
	c0-7.1,5.8-12.8,13-12.8s13,5.7,13,12.8c0,7.1-5.8,12.8-13,12.8S246.1,555,246.1,547.9z M246.1,490.3c0-7.1,5.8-12.8,13-12.8
	s13,5.7,13,12.8c0,7.1-5.8,12.8-13,12.8S246.1,497.3,246.1,490.3z M421.4,547.9c0-7.1,5.8-12.8,13-12.8s13,5.7,13,12.8
	c0,7.1-5.8,12.8-13,12.8C427.2,560.7,421.4,555,421.4,547.9z M421.4,490.3c0-7.1,5.8-12.8,13-12.8s13,5.7,13,12.8
	c0,7.1-5.8,12.8-13,12.8C427.2,503.1,421.4,497.3,421.4,490.3z M377.6,519.1c0-7.1,5.8-12.8,13-12.8s13,5.7,13,12.8
	c0,7.1-5.8,12.8-13,12.8S377.6,526.2,377.6,519.1z M333.8,547.9c0-7.1,5.8-12.8,13-12.8s13,5.7,13,12.8c0,7.1-5.8,12.8-13,12.8
	S333.8,555,333.8,547.9z M333.8,490.3c0-7.1,5.8-12.8,13-12.8s13,5.7,13,12.8c0,7.1-5.8,12.8-13,12.8S333.8,497.3,333.8,490.3z
	 M509.1,547.9c0-7.1,5.8-12.8,13-12.8s13,5.7,13,12.8c0,7.1-5.8,12.8-13,12.8S509.1,555,509.1,547.9z M509.1,490.3
	c0-7.1,5.8-12.8,13-12.8s13,5.7,13,12.8c0,7.1-5.8,12.8-13,12.8S509.1,497.3,509.1,490.3z M465.2,519.1c0-7.1,5.8-12.8,13-12.8
	s13,5.7,13,12.8c0,7.1-5.8,12.8-13,12.8S465.2,526.2,465.2,519.1z M421.4,547.9c0-7.1,5.8-12.8,13-12.8s13,5.7,13,12.8
	c0,7.1-5.8,12.8-13,12.8C427.2,560.7,421.4,555,421.4,547.9z M421.4,490.3c0-7.1,5.8-12.8,13-12.8s13,5.7,13,12.8
	c0,7.1-5.8,12.8-13,12.8C427.2,503.1,421.4,497.3,421.4,490.3z M246.1,490.3c0-7.1,5.8-12.8,13-12.8s13,5.7,13,12.8
	c0,7.1-5.8,12.8-13,12.8S246.1,497.3,246.1,490.3z M246.1,432.6c0-7.1,5.8-12.8,13-12.8s13,5.7,13,12.8c0,7.1-5.8,12.8-13,12.8
	C251.9,445.4,246.1,439.7,246.1,432.6z M202.3,461.4c0-7.1,5.8-12.8,13-12.8s13,5.7,13,12.8c0,7.1-5.8,12.8-13,12.8
	S202.3,468.5,202.3,461.4z M158.4,490.3c0-7.1,5.8-12.8,13-12.8s13,5.7,13,12.8c0,7.1-5.8,12.8-13,12.8
	C164.3,503.1,158.4,497.3,158.4,490.3z M158.4,432.6c0-7.1,5.8-12.8,13-12.8s13,5.7,13,12.8c0,7.1-5.8,12.8-13,12.8
	C164.3,445.4,158.4,439.7,158.4,432.6z M333.8,490.3c0-7.1,5.8-12.8,13-12.8s13,5.7,13,12.8c0,7.1-5.8,12.8-13,12.8
	S333.8,497.3,333.8,490.3z M333.8,432.6c0-7.1,5.8-12.8,13-12.8s13,5.7,13,12.8c0,7.1-5.8,12.8-13,12.8
	C339.6,445.4,333.8,439.7,333.8,432.6z M289.9,461.4c0-7.1,5.8-12.8,13-12.8s13,5.7,13,12.8c0,7.1-5.8,12.8-13,12.8
	S289.9,468.5,289.9,461.4z M246.1,490.3c0-7.1,5.8-12.8,13-12.8s13,5.7,13,12.8c0,7.1-5.8,12.8-13,12.8S246.1,497.3,246.1,490.3z
	 M246.1,432.6c0-7.1,5.8-12.8,13-12.8s13,5.7,13,12.8c0,7.1-5.8,12.8-13,12.8C251.9,445.4,246.1,439.7,246.1,432.6z M421.4,490.3
	c0-7.1,5.8-12.8,13-12.8s13,5.7,13,12.8c0,7.1-5.8,12.8-13,12.8C427.2,503.1,421.4,497.3,421.4,490.3z M421.4,432.6
	c0-7.1,5.8-12.8,13-12.8s13,5.7,13,12.8c0,7.1-5.8,12.8-13,12.8C427.2,445.4,421.4,439.7,421.4,432.6z M377.6,461.4
	c0-7.1,5.8-12.8,13-12.8s13,5.7,13,12.8c0,7.1-5.8,12.8-13,12.8S377.6,468.5,377.6,461.4z M333.8,490.3c0-7.1,5.8-12.8,13-12.8
	s13,5.7,13,12.8c0,7.1-5.8,12.8-13,12.8S333.8,497.3,333.8,490.3z M333.8,432.6c0-7.1,5.8-12.8,13-12.8s13,5.7,13,12.8
	c0,7.1-5.8,12.8-13,12.8C339.6,445.4,333.8,439.7,333.8,432.6z M509.1,490.3c0-7.1,5.8-12.8,13-12.8s13,5.7,13,12.8
	c0,7.1-5.8,12.8-13,12.8S509.1,497.3,509.1,490.3z M509.1,432.6c0-7.1,5.8-12.8,13-12.8s13,5.7,13,12.8c0,7.1-5.8,12.8-13,12.8
	C514.9,445.4,509.1,439.7,509.1,432.6z M465.2,461.4c0-7.1,5.8-12.8,13-12.8s13,5.7,13,12.8c0,7.1-5.8,12.8-13,12.8
	S465.2,468.5,465.2,461.4z M421.4,490.3c0-7.1,5.8-12.8,13-12.8s13,5.7,13,12.8c0,7.1-5.8,12.8-13,12.8
	C427.2,503.1,421.4,497.3,421.4,490.3z M421.4,432.6c0-7.1,5.8-12.8,13-12.8s13,5.7,13,12.8c0,7.1-5.8,12.8-13,12.8
	C427.2,445.4,421.4,439.7,421.4,432.6z M246.1,432.6c0-7.1,5.8-12.8,13-12.8s13,5.7,13,12.8c0,7.1-5.8,12.8-13,12.8
	C251.9,445.4,246.1,439.7,246.1,432.6z M246.1,375c0-7.1,5.8-12.8,13-12.8s13,5.7,13,12.8c0,7.1-5.8,12.8-13,12.8
	S246.1,382,246.1,375z M202.3,403.8c0-7.1,5.8-12.8,13-12.8s13,5.7,13,12.8c0,7.1-5.8,12.8-13,12.8S202.3,410.9,202.3,403.8z
	 M158.4,432.6c0-7.1,5.8-12.8,13-12.8s13,5.7,13,12.8c0,7.1-5.8,12.8-13,12.8C164.3,445.4,158.4,439.7,158.4,432.6z M158.4,375
	c0-7.1,5.8-12.8,13-12.8s13,5.7,13,12.8c0,7.1-5.8,12.8-13,12.8C164.3,387.8,158.4,382,158.4,375z M333.8,432.6
	c0-7.1,5.8-12.8,13-12.8s13,5.7,13,12.8c0,7.1-5.8,12.8-13,12.8C339.6,445.4,333.8,439.7,333.8,432.6z M333.8,375
	c0-7.1,5.8-12.8,13-12.8s13,5.7,13,12.8c0,7.1-5.8,12.8-13,12.8S333.8,382,333.8,375z M289.9,403.8c0-7.1,5.8-12.8,13-12.8
	s13,5.7,13,12.8c0,7.1-5.8,12.8-13,12.8S289.9,410.9,289.9,403.8z M246.1,432.6c0-7.1,5.8-12.8,13-12.8s13,5.7,13,12.8
	c0,7.1-5.8,12.8-13,12.8C251.9,445.4,246.1,439.7,246.1,432.6z M246.1,375c0-7.1,5.8-12.8,13-12.8s13,5.7,13,12.8
	c0,7.1-5.8,12.8-13,12.8S246.1,382,246.1,375z M421.4,432.6c0-7.1,5.8-12.8,13-12.8s13,5.7,13,12.8c0,7.1-5.8,12.8-13,12.8
	C427.2,445.4,421.4,439.7,421.4,432.6z M421.4,375c0-7.1,5.8-12.8,13-12.8s13,5.7,13,12.8c0,7.1-5.8,12.8-13,12.8
	C427.2,387.8,421.4,382,421.4,375z M377.6,403.8c0-7.1,5.8-12.8,13-12.8s13,5.7,13,12.8c0,7.1-5.8,12.8-13,12.8
	S377.6,410.9,377.6,403.8z M333.8,432.6c0-7.1,5.8-12.8,13-12.8s13,5.7,13,12.8c0,7.1-5.8,12.8-13,12.8
	C339.6,445.4,333.8,439.7,333.8,432.6z M333.8,375c0-7.1,5.8-12.8,13-12.8s13,5.7,13,12.8c0,7.1-5.8,12.8-13,12.8
	S333.8,382,333.8,375z M509.1,432.6c0-7.1,5.8-12.8,13-12.8s13,5.7,13,12.8c0,7.1-5.8,12.8-13,12.8
	C514.9,445.4,509.1,439.7,509.1,432.6z M509.1,375c0-7.1,5.8-12.8,13-12.8s13,5.7,13,12.8c0,7.1-5.8,12.8-13,12.8
	S509.1,382,509.1,375z M465.2,403.8c0-7.1,5.8-12.8,13-12.8s13,5.7,13,12.8c0,7.1-5.8,12.8-13,12.8S465.2,410.9,465.2,403.8z
	 M421.4,432.6c0-7.1,5.8-12.8,13-12.8s13,5.7,13,12.8c0,7.1-5.8,12.8-13,12.8C427.2,445.4,421.4,439.7,421.4,432.6z M421.4,375
	c0-7.1,5.8-12.8,13-12.8s13,5.7,13,12.8c0,7.1-5.8,12.8-13,12.8C427.2,387.8,421.4,382,421.4,375z M246.1,375
	c0-7.1,5.8-12.8,13-12.8s13,5.7,13,12.8c0,7.1-5.8,12.8-13,12.8S246.1,382,246.1,375z M246.1,317.3c0-7.1,5.8-12.8,13-12.8
	s13,5.7,13,12.8c0,7.1-5.8,12.8-13,12.8C251.9,330.1,246.1,324.4,246.1,317.3z M202.3,346.1c0-7.1,5.8-12.8,13-12.8s13,5.7,13,12.8
	c0,7.1-5.8,12.8-13,12.8C208.1,358.9,202.3,353.2,202.3,346.1z M158.4,375c0-7.1,5.8-12.8,13-12.8s13,5.7,13,12.8
	c0,7.1-5.8,12.8-13,12.8C164.3,387.8,158.4,382,158.4,375z M158.4,317.3c0-7.1,5.8-12.8,13-12.8s13,5.7,13,12.8
	c0,7.1-5.8,12.8-13,12.8C164.3,330.1,158.4,324.4,158.4,317.3z M333.8,375c0-7.1,5.8-12.8,13-12.8s13,5.7,13,12.8
	c0,7.1-5.8,12.8-13,12.8S333.8,382,333.8,375z M333.8,317.3c0-7.1,5.8-12.8,13-12.8s13,5.7,13,12.8c0,7.1-5.8,12.8-13,12.8
	C339.6,330.1,333.8,324.4,333.8,317.3z M289.9,346.1c0-7.1,5.8-12.8,13-12.8s13,5.7,13,12.8c0,7.1-5.8,12.8-13,12.8
	C295.7,358.9,289.9,353.2,289.9,346.1z M246.1,375c0-7.1,5.8-12.8,13-12.8s13,5.7,13,12.8c0,7.1-5.8,12.8-13,12.8
	S246.1,382,246.1,375z M246.1,317.3c0-7.1,5.8-12.8,13-12.8s13,5.7,13,12.8c0,7.1-5.8,12.8-13,12.8
	C251.9,330.1,246.1,324.4,246.1,317.3z M421.4,375c0-7.1,5.8-12.8,13-12.8s13,5.7,13,12.8c0,7.1-5.8,12.8-13,12.8
	C427.2,387.8,421.4,382,421.4,375z M421.4,317.3c0-7.1,5.8-12.8,13-12.8s13,5.7,13,12.8c0,7.1-5.8,12.8-13,12.8
	C427.2,330.1,421.4,324.4,421.4,317.3z M377.6,346.1c0-7.1,5.8-12.8,13-12.8s13,5.7,13,12.8c0,7.1-5.8,12.8-13,12.8
	C383.4,358.9,377.6,353.2,377.6,346.1z M333.8,375c0-7.1,5.8-12.8,13-12.8s13,5.7,13,12.8c0,7.1-5.8,12.8-13,12.8
	S333.8,382,333.8,375z M333.8,317.3c0-7.1,5.8-12.8,13-12.8s13,5.7,13,12.8c0,7.1-5.8,12.8-13,12.8
	C339.6,330.1,333.8,324.4,333.8,317.3z M509.1,375c0-7.1,5.8-12.8,13-12.8s13,5.7,13,12.8c0,7.1-5.8,12.8-13,12.8
	S509.1,382,509.1,375z M509.1,317.3c0-7.1,5.8-12.8,13-12.8s13,5.7,13,12.8c0,7.1-5.8,12.8-13,12.8
	C514.9,330.1,509.1,324.4,509.1,317.3z M465.2,346.1c0-7.1,5.8-12.8,13-12.8s13,5.7,13,12.8c0,7.1-5.8,12.8-13,12.8
	C471,358.9,465.2,353.2,465.2,346.1z M421.4,375c0-7.1,5.8-12.8,13-12.8s13,5.7,13,12.8c0,7.1-5.8,12.8-13,12.8
	C427.2,387.8,421.4,382,421.4,375z M421.4,317.3c0-7.1,5.8-12.8,13-12.8s13,5.7,13,12.8c0,7.1-5.8,12.8-13,12.8
	C427.2,330.1,421.4,324.4,421.4,317.3z M246.1,317.3c0-7.1,5.8-12.8,13-12.8s13,5.7,13,12.8c0,7.1-5.8,12.8-13,12.8
	C251.9,330.1,246.1,324.4,246.1,317.3z M246.1,259.6c0-7.1,5.8-12.8,13-12.8s13,5.7,13,12.8c0,7.1-5.8,12.8-13,12.8
	C251.9,272.4,246.1,266.7,246.1,259.6z M202.3,288.5c0-7.1,5.8-12.8,13-12.8s13,5.7,13,12.8c0,7.1-5.8,12.8-13,12.8
	C208.1,301.3,202.3,295.5,202.3,288.5z M158.4,317.3c0-7.1,5.8-12.8,13-12.8s13,5.7,13,12.8c0,7.1-5.8,12.8-13,12.8
	C164.3,330.1,158.4,324.4,158.4,317.3z M158.4,259.6c0-7.1,5.8-12.8,13-12.8s13,5.7,13,12.8c0,7.1-5.8,12.8-13,12.8
	C164.3,272.4,158.4,266.7,158.4,259.6z M333.8,317.3c0-7.1,5.8-12.8,13-12.8s13,5.7,13,12.8c0,7.1-5.8,12.8-13,12.8
	C339.6,330.1,333.8,324.4,333.8,317.3z M333.8,259.6c0-7.1,5.8-12.8,13-12.8s13,5.7,13,12.8c0,7.1-5.8,12.8-13,12.8
	C339.6,272.4,333.8,266.7,333.8,259.6z M289.9,288.5c0-7.1,5.8-12.8,13-12.8s13,5.7,13,12.8c0,7.1-5.8,12.8-13,12.8
	C295.7,301.3,289.9,295.5,289.9,288.5z M246.1,317.3c0-7.1,5.8-12.8,13-12.8s13,5.7,13,12.8c0,7.1-5.8,12.8-13,12.8
	C251.9,330.1,246.1,324.4,246.1,317.3z M246.1,259.6c0-7.1,5.8-12.8,13-12.8s13,5.7,13,12.8c0,7.1-5.8,12.8-13,12.8
	C251.9,272.4,246.1,266.7,246.1,259.6z M421.4,317.3c0-7.1,5.8-12.8,13-12.8s13,5.7,13,12.8c0,7.1-5.8,12.8-13,12.8
	C427.2,330.1,421.4,324.4,421.4,317.3z M421.4,259.6c0-7.1,5.8-12.8,13-12.8s13,5.7,13,12.8c0,7.1-5.8,12.8-13,12.8
	C427.2,272.4,421.4,266.7,421.4,259.6z M377.6,288.5c0-7.1,5.8-12.8,13-12.8s13,5.7,13,12.8c0,7.1-5.8,12.8-13,12.8
	C383.4,301.3,377.6,295.5,377.6,288.5z M333.8,317.3c0-7.1,5.8-12.8,13-12.8s13,5.7,13,12.8c0,7.1-5.8,12.8-13,12.8
	C339.6,330.1,333.8,324.4,333.8,317.3z M333.8,259.6c0-7.1,5.8-12.8,13-12.8s13,5.7,13,12.8c0,7.1-5.8,12.8-13,12.8
	C339.6,272.4,333.8,266.7,333.8,259.6z M509.1,317.3c0-7.1,5.8-12.8,13-12.8s13,5.7,13,12.8c0,7.1-5.8,12.8-13,12.8
	C514.9,330.1,509.1,324.4,509.1,317.3z M509.1,259.6c0-7.1,5.8-12.8,13-12.8s13,5.7,13,12.8c0,7.1-5.8,12.8-13,12.8
	C514.9,272.4,509.1,266.7,509.1,259.6z M465.2,288.5c0-7.1,5.8-12.8,13-12.8s13,5.7,13,12.8c0,7.1-5.8,12.8-13,12.8
	C471,301.3,465.2,295.5,465.2,288.5z M421.4,317.3c0-7.1,5.8-12.8,13-12.8s13,5.7,13,12.8c0,7.1-5.8,12.8-13,12.8
	C427.2,330.1,421.4,324.4,421.4,317.3z M421.4,259.6c0-7.1,5.8-12.8,13-12.8s13,5.7,13,12.8c0,7.1-5.8,12.8-13,12.8
	C427.2,272.4,421.4,266.7,421.4,259.6z M246.1,259.6c0-7.1,5.8-12.8,13-12.8s13,5.7,13,12.8c0,7.1-5.8,12.8-13,12.8
	C251.9,272.4,246.1,266.7,246.1,259.6z M246.1,202c0-7.1,5.8-12.8,13-12.8s13,5.7,13,12.8c0,7.1-5.8,12.8-13,12.8
	S246.1,209,246.1,202z M202.3,230.8c0-7.1,5.8-12.8,13-12.8s13,5.7,13,12.8c0,7.1-5.8,12.8-13,12.8
	C208.1,243.6,202.3,237.9,202.3,230.8z M158.4,259.6c0-7.1,5.8-12.8,13-12.8s13,5.7,13,12.8c0,7.1-5.8,12.8-13,12.8
	C164.3,272.4,158.4,266.7,158.4,259.6z M158.4,202c0-7.1,5.8-12.8,13-12.8s13,5.7,13,12.8c0,7.1-5.8,12.8-13,12.8
	C164.3,214.8,158.4,209,158.4,202z M333.8,259.6c0-7.1,5.8-12.8,13-12.8s13,5.7,13,12.8c0,7.1-5.8,12.8-13,12.8
	C339.6,272.4,333.8,266.7,333.8,259.6z M333.8,202c0-7.1,5.8-12.8,13-12.8s13,5.7,13,12.8c0,7.1-5.8,12.8-13,12.8
	S333.8,209,333.8,202z M289.9,230.8c0-7.1,5.8-12.8,13-12.8s13,5.7,13,12.8c0,7.1-5.8,12.8-13,12.8
	C295.7,243.6,289.9,237.9,289.9,230.8z M246.1,259.6c0-7.1,5.8-12.8,13-12.8s13,5.7,13,12.8c0,7.1-5.8,12.8-13,12.8
	C251.9,272.4,246.1,266.7,246.1,259.6z M246.1,202c0-7.1,5.8-12.8,13-12.8s13,5.7,13,12.8c0,7.1-5.8,12.8-13,12.8
	S246.1,209,246.1,202z M421.4,259.6c0-7.1,5.8-12.8,13-12.8s13,5.7,13,12.8c0,7.1-5.8,12.8-13,12.8
	C427.2,272.4,421.4,266.7,421.4,259.6z M421.4,202c0-7.1,5.8-12.8,13-12.8s13,5.7,13,12.8c0,7.1-5.8,12.8-13,12.8
	C427.2,214.8,421.4,209,421.4,202z M377.6,230.8c0-7.1,5.8-12.8,13-12.8s13,5.7,13,12.8c0,7.1-5.8,12.8-13,12.8
	C383.4,243.6,377.6,237.9,377.6,230.8z M333.8,259.6c0-7.1,5.8-12.8,13-12.8s13,5.7,13,12.8c0,7.1-5.8,12.8-13,12.8
	C339.6,272.4,333.8,266.7,333.8,259.6z M333.8,202c0-7.1,5.8-12.8,13-12.8s13,5.7,13,12.8c0,7.1-5.8,12.8-13,12.8
	S333.8,209,333.8,202z M509.1,259.6c0-7.1,5.8-12.8,13-12.8s13,5.7,13,12.8c0,7.1-5.8,12.8-13,12.8
	C514.9,272.4,509.1,266.7,509.1,259.6z M509.1,202c0-7.1,5.8-12.8,13-12.8s13,5.7,13,12.8c0,7.1-5.8,12.8-13,12.8
	S509.1,209,509.1,202z M465.2,230.8c0-7.1,5.8-12.8,13-12.8s13,5.7,13,12.8c0,7.1-5.8,12.8-13,12.8
	C471,243.6,465.2,237.9,465.2,230.8z M421.4,259.6c0-7.1,5.8-12.8,13-12.8s13,5.7,13,12.8c0,7.1-5.8,12.8-13,12.8
	C427.2,272.4,421.4,266.7,421.4,259.6z M421.4,202c0-7.1,5.8-12.8,13-12.8s13,5.7,13,12.8c0,7.1-5.8,12.8-13,12.8
	C427.2,214.8,421.4,209,421.4,202z M246.1,202c0-7.1,5.8-12.8,13-12.8s13,5.7,13,12.8c0,7.1-5.8,12.8-13,12.8S246.1,209,246.1,202z
	 M246.1,144.3c0-7.1,5.8-12.8,13-12.8s13,5.7,13,12.8c0,7.1-5.8,12.8-13,12.8S246.1,151.4,246.1,144.3z M202.3,173.1
	c0-7.1,5.8-12.8,13-12.8s13,5.7,13,12.8c0,7.1-5.8,12.8-13,12.8S202.3,180.2,202.3,173.1z M158.4,202c0-7.1,5.8-12.8,13-12.8
	s13,5.7,13,12.8c0,7.1-5.8,12.8-13,12.8C164.3,214.8,158.4,209,158.4,202z M158.4,144.3c0-7.1,5.8-12.8,13-12.8s13,5.7,13,12.8
	c0,7.1-5.8,12.8-13,12.8C164.3,157.1,158.4,151.4,158.4,144.3z M333.8,202c0-7.1,5.8-12.8,13-12.8s13,5.7,13,12.8
	c0,7.1-5.8,12.8-13,12.8S333.8,209,333.8,202z M333.8,144.3c0-7.1,5.8-12.8,13-12.8s13,5.7,13,12.8c0,7.1-5.8,12.8-13,12.8
	S333.8,151.4,333.8,144.3z M289.9,173.1c0-7.1,5.8-12.8,13-12.8s13,5.7,13,12.8c0,7.1-5.8,12.8-13,12.8S289.9,180.2,289.9,173.1z
	 M246.1,202c0-7.1,5.8-12.8,13-12.8s13,5.7,13,12.8c0,7.1-5.8,12.8-13,12.8S246.1,209,246.1,202z M246.1,144.3
	c0-7.1,5.8-12.8,13-12.8s13,5.7,13,12.8c0,7.1-5.8,12.8-13,12.8S246.1,151.4,246.1,144.3z M421.4,202c0-7.1,5.8-12.8,13-12.8
	s13,5.7,13,12.8c0,7.1-5.8,12.8-13,12.8C427.2,214.8,421.4,209,421.4,202z M421.4,144.3c0-7.1,5.8-12.8,13-12.8s13,5.7,13,12.8
	c0,7.1-5.8,12.8-13,12.8C427.2,157.1,421.4,151.4,421.4,144.3z M377.6,173.1c0-7.1,5.8-12.8,13-12.8s13,5.7,13,12.8
	c0,7.1-5.8,12.8-13,12.8S377.6,180.2,377.6,173.1z M333.8,202c0-7.1,5.8-12.8,13-12.8s13,5.7,13,12.8c0,7.1-5.8,12.8-13,12.8
	S333.8,209,333.8,202z M333.8,144.3c0-7.1,5.8-12.8,13-12.8s13,5.7,13,12.8c0,7.1-5.8,12.8-13,12.8S333.8,151.4,333.8,144.3z
	 M509.1,202c0-7.1,5.8-12.8,13-12.8s13,5.7,13,12.8c0,7.1-5.8,12.8-13,12.8S509.1,209,509.1,202z M509.1,144.3
	c0-7.1,5.8-12.8,13-12.8s13,5.7,13,12.8c0,7.1-5.8,12.8-13,12.8S509.1,151.4,509.1,144.3z M465.2,173.1c0-7.1,5.8-12.8,13-12.8
	s13,5.7,13,12.8c0,7.1-5.8,12.8-13,12.8S465.2,180.2,465.2,173.1z M421.4,202c0-7.1,5.8-12.8,13-12.8s13,5.7,13,12.8
	c0,7.1-5.8,12.8-13,12.8C427.2,214.8,421.4,209,421.4,202z M421.4,144.3c0-7.1,5.8-12.8,13-12.8s13,5.7,13,12.8
	c0,7.1-5.8,12.8-13,12.8C427.2,157.1,421.4,151.4,421.4,144.3z M246.1,144.3c0-7.1,5.8-12.8,13-12.8s13,5.7,13,12.8
	c0,7.1-5.8,12.8-13,12.8S246.1,151.4,246.1,144.3z M246.1,86.6c0-7.1,5.8-12.8,13-12.8s13,5.7,13,12.8c0,7.1-5.8,12.8-13,12.8
	S246.1,93.7,246.1,86.6z M202.3,115.5c0-7.1,5.8-12.8,13-12.8s13,5.7,13,12.8c0,7.1-5.8,12.8-13,12.8S202.3,122.6,202.3,115.5z
	 M158.4,144.3c0-7.1,5.8-12.8,13-12.8s13,5.7,13,12.8c0,7.1-5.8,12.8-13,12.8C164.3,157.1,158.4,151.4,158.4,144.3z M158.4,86.6
	c0-7.1,5.8-12.8,13-12.8s13,5.7,13,12.8c0,7.1-5.8,12.8-13,12.8C164.3,99.4,158.4,93.7,158.4,86.6z M333.8,144.3
	c0-7.1,5.8-12.8,13-12.8s13,5.7,13,12.8c0,7.1-5.8,12.8-13,12.8S333.8,151.4,333.8,144.3z M333.8,86.6c0-7.1,5.8-12.8,13-12.8
	s13,5.7,13,12.8c0,7.1-5.8,12.8-13,12.8S333.8,93.7,333.8,86.6z M289.9,115.5c0-7.1,5.8-12.8,13-12.8s13,5.7,13,12.8
	c0,7.1-5.8,12.8-13,12.8S289.9,122.6,289.9,115.5z M246.1,144.3c0-7.1,5.8-12.8,13-12.8s13,5.7,13,12.8c0,7.1-5.8,12.8-13,12.8
	S246.1,151.4,246.1,144.3z M246.1,86.6c0-7.1,5.8-12.8,13-12.8s13,5.7,13,12.8c0,7.1-5.8,12.8-13,12.8S246.1,93.7,246.1,86.6z
	 M421.4,144.3c0-7.1,5.8-12.8,13-12.8s13,5.7,13,12.8c0,7.1-5.8,12.8-13,12.8C427.2,157.1,421.4,151.4,421.4,144.3z M421.4,86.6
	c0-7.1,5.8-12.8,13-12.8s13,5.7,13,12.8c0,7.1-5.8,12.8-13,12.8C427.2,99.4,421.4,93.7,421.4,86.6z M377.6,115.5
	c0-7.1,5.8-12.8,13-12.8s13,5.7,13,12.8c0,7.1-5.8,12.8-13,12.8S377.6,122.6,377.6,115.5z M333.8,144.3c0-7.1,5.8-12.8,13-12.8
	s13,5.7,13,12.8c0,7.1-5.8,12.8-13,12.8S333.8,151.4,333.8,144.3z M333.8,86.6c0-7.1,5.8-12.8,13-12.8s13,5.7,13,12.8
	c0,7.1-5.8,12.8-13,12.8S333.8,93.7,333.8,86.6z M509.1,144.3c0-7.1,5.8-12.8,13-12.8s13,5.7,13,12.8c0,7.1-5.8,12.8-13,12.8
	S509.1,151.4,509.1,144.3z M509.1,86.6c0-7.1,5.8-12.8,13-12.8s13,5.7,13,12.8c0,7.1-5.8,12.8-13,12.8S509.1,93.7,509.1,86.6z
	 M465.2,115.5c0-7.1,5.8-12.8,13-12.8s13,5.7,13,12.8c0,7.1-5.8,12.8-13,12.8S465.2,122.6,465.2,115.5z M421.4,144.3
	c0-7.1,5.8-12.8,13-12.8s13,5.7,13,12.8c0,7.1-5.8,12.8-13,12.8C427.2,157.1,421.4,151.4,421.4,144.3z M421.4,86.6
	c0-7.1,5.8-12.8,13-12.8s13,5.7,13,12.8c0,7.1-5.8,12.8-13,12.8C427.2,99.4,421.4,93.7,421.4,86.6z M246,605c0-7.1,5.8-12.8,13-12.8
	c7.2,0,13,5.7,13,12.8c0,7.1-5.8,12.8-13,12.8C251.9,617.8,246,612,246,605z"/>
</svg>
