<?xml version="1.0" encoding="utf-8"?>
<!-- Generator: Adobe Illustrator 23.0.6, SVG Export Plug-In . SVG Version: 6.00 Build 0)  -->
<svg version="1.1" id="Layer_1" xmlns="http://www.w3.org/2000/svg" xmlns:xlink="http://www.w3.org/1999/xlink" x="0px" y="0px"
	 viewBox="0 0 720 720" style="enable-background:new 0 0 720 720;" xml:space="preserve">
<style type="text/css">
	.st0{fill:#FFFFFF;}
	.st1{fill:none;stroke:#FFFFFF;stroke-width:15.6363;stroke-miterlimit:10;}
	.st2{fill:none;stroke:#FFFFFF;stroke-width:13.0219;stroke-miterlimit:10;}
	.st3{opacity:7.000000e-02;fill:url(#SVGID_1_);enable-background:new    ;}
	.st4{opacity:7.000000e-02;fill:url(#SVGID_2_);enable-background:new    ;}
</style>
<g>
	<path class="st0" d="M584.1,270.5c31.5-0.2,57.8,26.2,57.3,57.6c-0.4,30.2-27,56.4-57,56.1c-31.5-0.3-57.2-26.7-57-58.6
		C527.6,294.1,551.6,270.7,584.1,270.5z"/>
	<path class="st0" d="M468.1,275.4c28.4,1,50.5,23.8,50.1,51.5c-0.4,27.6-26.2,52.6-53.3,51.6c-27.3-1-51.6-27.6-50.2-54.9
		C416.2,296,440.1,274.5,468.1,275.4z"/>
	<path class="st0" d="M466.6,393.8c27.5-0.4,47,18.6,47.8,46.3c0.8,29-19.9,51.8-47.6,52.5c-26.6,0.7-48.3-20.9-49-48.6
		C417,414,436.3,394.2,466.6,393.8z"/>
	<path class="st0" d="M514.5,209.3c-0.1,28.4-18.8,47.8-46.4,48.2c-29.8,0.3-50.7-20.3-50.2-49.6c0.4-28,22.2-49.8,49-49.2
		C493.8,159.3,514.6,181.4,514.5,209.3z"/>
	<path class="st0" d="M348.3,371.4c-23.5-1.2-43.9-23.7-42.6-47c1.4-24.1,25.1-45.2,49.1-43.6c23.3,1.5,44.8,24.2,44.1,46.6
		C398.1,353.1,375.5,372.8,348.3,371.4z"/>
	<path class="st0" d="M353.4,165.8c27.1,0.4,42.7,16,42.4,42.4c-0.3,26-19.2,45-44.4,44.5c-24.5-0.5-42.7-19.2-42.5-43.8
		C309,181.5,325.7,165.4,353.4,165.8z"/>
	<path class="st0" d="M395.8,442.6c0.5,26.4-15,42.3-41.9,42.8c-27.7,0.5-44.5-15.4-45-42.5c-0.4-24.5,17.6-43.5,42-44.3
		C375.9,397.8,395.3,416.9,395.8,442.6z"/>
	<path class="st0" d="M394.9,91.1c-0.2,22.7-21.4,42.5-44.8,42c-21.6-0.5-41.3-21.9-40.4-43.7c0.9-21.9,21.8-41.7,43.4-41
		C374.9,49,395,69.5,394.9,91.1z"/>
	<path class="st0" d="M394.7,563.7c-2.2,22-23.8,40.7-45.2,39.1c-23-1.8-42.4-24.7-39.5-46.8c2.8-22,23-39.3,43.7-37.7
		C377.7,520.2,396.9,541.4,394.7,563.7z"/>
	<path class="st0" d="M237.2,366.6c-23.9-0.1-42.4-18.4-41.9-41.6c0.5-21.4,20.5-40,42.2-39.4c21.2,0.6,38.9,18.6,39.2,39.8
		C277,348.5,259.5,366.7,237.2,366.6z"/>
	<path class="st0" d="M236.9,247.3c-21.2,0.6-36.9-14.8-37.7-37c-0.8-22,13.7-38.4,34.9-39.4c21.2-1.1,38.1,14.4,38.9,35.5
		C273.9,229.9,259.1,246.7,236.9,247.3z"/>
	<path class="st0" d="M199.2,441.3c0.6-22.2,16.1-37.7,37.3-37.4c22.3,0.4,37.1,17,36.4,40.6c-0.6,21.2-17.3,36.7-38.5,35.9
		C213.3,479.6,198.6,463.3,199.2,441.3z"/>
	<path class="st0" d="M154.1,326.7c-0.4,19.5-16.2,35.1-34.8,34.7c-18.7-0.5-33.9-17-33.4-36.2c0.5-19.6,13.6-32.1,33.6-31.9
		C141,293.5,154.5,306.5,154.1,326.7z"/>
</g>
</svg>
