<?xml version="1.0" encoding="utf-8"?>
<!-- Generator: Adobe Illustrator 23.0.6, SVG Export Plug-In . SVG Version: 6.00 Build 0)  -->
<svg version="1.1" id="Layer_1" xmlns="http://www.w3.org/2000/svg" xmlns:xlink="http://www.w3.org/1999/xlink" x="0px" y="0px"
	 viewBox="0 0 720 720" style="enable-background:new 0 0 720 720;" xml:space="preserve">
<style type="text/css">
	.st0{fill:#FFFFFF;}
	.st1{fill:none;stroke:#FFFFFF;stroke-width:15.6363;stroke-miterlimit:10;}
	.st2{fill:none;stroke:#FFFFFF;stroke-width:13.0219;stroke-miterlimit:10;}
	.st3{opacity:7.000000e-02;fill:url(#SVGID_1_);enable-background:new    ;}
	.st4{opacity:7.000000e-02;fill:url(#SVGID_2_);enable-background:new    ;}
</style>
<path class="st1" d="M89.6,238.6v228.9c0,14.7,10.3,26.6,23.1,26.6h480.5c12.8,0,23.1-11.9,23.1-26.6V345
	c0-14.7-10.3-26.6-23.1-26.6h-55.4c-12.8,0-23.1,11.9-23.1,26.6v21.3c0,14.7-10.3,26.6-23.1,26.6h-55.4c-12.8,0-23.1-11.9-23.1-26.6
	v-181c0-14.7-10.3-26.6-23.1-26.6H316c-12.8,0-23.1,11.9-23.1,26.6v170.3c0,14.7-10.3,26.6-23.1,26.6h-37
	c-12.8,0-23.1-11.9-23.1-26.6V238.6c0-14.7-10.3-26.6-23.1-26.6h-73.9C99.9,212,89.6,223.9,89.6,238.6L89.6,238.6z"/>
</svg>
