<?xml version="1.0" encoding="utf-8"?>
<!-- Generator: Adobe Illustrator 23.0.6, SVG Export Plug-In . SVG Version: 6.00 Build 0)  -->
<svg version="1.1" id="Layer_1" xmlns="http://www.w3.org/2000/svg" xmlns:xlink="http://www.w3.org/1999/xlink" x="0px" y="0px"
	 viewBox="0 0 720 720" style="enable-background:new 0 0 720 720;" xml:space="preserve">
<style type="text/css">
	.st0{fill:#FFFFFF;}
	.st1{fill:none;stroke:#FFFFFF;stroke-width:15.6363;stroke-miterlimit:10;}
	.st2{fill:none;stroke:#FFFFFF;stroke-width:13.0219;stroke-miterlimit:10;}
	.st3{opacity:7.000000e-02;fill:url(#SVGID_1_);enable-background:new    ;}
	.st4{opacity:7.000000e-02;fill:url(#SVGID_2_);enable-background:new    ;}
</style>
<path class="st0" d="M552.1,310.6c-9,0.1-16.5,7.2-16.5,16.2c0,45.8,0,148.7,0,188.6c0,9-7.3,16.2-16.3,16.2h-94.9
	c0,0-0.1-10-0.1-18V398.7c0-10.8-8.9-19.6-19.8-19.6H346c-10.9,0-19.8,8.8-19.8,19.6v114.9c0,8-0.1,18-0.1,18l-96.5,0
	c-9,0-16.3-7.3-16.3-16.2V326.8c0-8.9-7.3-16.2-16.3-16.2h-4.3c-15.1,0-22.2-18.6-10.7-28.5l179.7-154.4c6.1-5.3,15.3-5.3,21.4,0
	l101,86.8l78.6,67.6C574.1,292,567.1,310.5,552.1,310.6z"/>
</svg>
