<?xml version="1.0" encoding="utf-8"?>
<!-- Generator: Adobe Illustrator 23.0.6, SVG Export Plug-In . SVG Version: 6.00 Build 0)  -->
<svg version="1.1" id="Layer_1" xmlns="http://www.w3.org/2000/svg" xmlns:xlink="http://www.w3.org/1999/xlink" x="0px" y="0px"
	 viewBox="0 0 720 720" style="enable-background:new 0 0 720 720;" xml:space="preserve">
<style type="text/css">
	.st0{fill:#FFFFFF;}
	.st1{fill:none;stroke:#FFFFFF;stroke-width:15.6363;stroke-miterlimit:10;}
	.st2{fill:none;stroke:#FFFFFF;stroke-width:13.0219;stroke-miterlimit:10;}
	.st3{opacity:7.000000e-02;fill:url(#SVGID_1_);enable-background:new    ;}
	.st4{opacity:7.000000e-02;fill:url(#SVGID_2_);enable-background:new    ;}
</style>
<linearGradient id="SVGID_1_" gradientUnits="userSpaceOnUse" x1="211.9954" y1="3728.7517" x2="857.9091" y2="3728.7517" gradientTransform="matrix(6.123234e-17 -1 -1 -6.123234e-17 4070.0691 769.6564)">
	<stop  offset="0" style="stop-color:#000000"/>
	<stop  offset="6.410000e-02" style="stop-color:#1B1B1C"/>
	<stop  offset="0.1605" style="stop-color:#434345"/>
	<stop  offset="0.2771" style="stop-color:#616265"/>
	<stop  offset="0.4095" style="stop-color:#85878A"/>
	<stop  offset="0.5554" style="stop-color:#B4B6B8"/>
	<stop  offset="0.7102" style="stop-color:#F0F0F1"/>
	<stop  offset="0.7392" style="stop-color:#FFFFFF"/>
</linearGradient>
<path class="st3" d="M253.7,13.1c7.2,0,13,5.7,13,12.8c0,7.1-5.8,12.8-13,12.8c-7.2,0-13-5.7-13-12.8S246.5,13.1,253.7,13.1z
	 M240.7,83.6c0,7.1,5.8,12.8,13,12.8c7.2,0,13-5.7,13-12.8c0-7.1-5.8-12.8-13-12.8C246.5,70.8,240.7,76.5,240.7,83.6z M196.9,54.7
	c0,7.1,5.8,12.8,13,12.8s13-5.7,13-12.8c0-7.1-5.8-12.8-13-12.8S196.9,47.7,196.9,54.7z M153,25.9c0,7.1,5.8,12.8,13,12.8
	s13-5.7,13-12.8c0-7.1-5.8-12.8-13-12.8C158.8,13.1,153,18.8,153,25.9z M153,83.6c0,7.1,5.8,12.8,13,12.8s13-5.7,13-12.8
	c0-7.1-5.8-12.8-13-12.8C158.8,70.8,153,76.5,153,83.6z M328.3,25.9c0,7.1,5.8,12.8,13,12.8s13-5.7,13-12.8c0-7.1-5.8-12.8-13-12.8
	C334.2,13.1,328.3,18.8,328.3,25.9z M328.3,83.6c0,7.1,5.8,12.8,13,12.8s13-5.7,13-12.8c0-7.1-5.8-12.8-13-12.8
	C334.2,70.8,328.3,76.5,328.3,83.6z M284.5,54.7c0,7.1,5.8,12.8,13,12.8s13-5.7,13-12.8c0-7.1-5.8-12.8-13-12.8
	S284.5,47.7,284.5,54.7z M240.7,25.9c0,7.1,5.8,12.8,13,12.8c7.2,0,13-5.7,13-12.8c0-7.1-5.8-12.8-13-12.8
	C246.5,13.1,240.7,18.8,240.7,25.9z M240.7,83.6c0,7.1,5.8,12.8,13,12.8c7.2,0,13-5.7,13-12.8c0-7.1-5.8-12.8-13-12.8
	C246.5,70.8,240.7,76.5,240.7,83.6z M416,25.9c0,7.1,5.8,12.8,13,12.8s13-5.7,13-12.8c0-7.1-5.8-12.8-13-12.8
	C421.8,13.1,416,18.8,416,25.9z M416,83.6c0,7.1,5.8,12.8,13,12.8s13-5.7,13-12.8c0-7.1-5.8-12.8-13-12.8
	C421.8,70.8,416,76.5,416,83.6z M372.2,54.7c0,7.1,5.8,12.8,13,12.8s13-5.7,13-12.8c0-7.1-5.8-12.8-13-12.8S372.2,47.7,372.2,54.7z
	 M328.3,25.9c0,7.1,5.8,12.8,13,12.8s13-5.7,13-12.8c0-7.1-5.8-12.8-13-12.8C334.2,13.1,328.3,18.8,328.3,25.9z M328.3,83.6
	c0,7.1,5.8,12.8,13,12.8s13-5.7,13-12.8c0-7.1-5.8-12.8-13-12.8C334.2,70.8,328.3,76.5,328.3,83.6z M503.7,25.9
	c0,7.1,5.8,12.8,13,12.8s13-5.7,13-12.8c0-7.1-5.8-12.8-13-12.8C509.5,13.1,503.7,18.8,503.7,25.9z M503.7,83.6
	c0,7.1,5.8,12.8,13,12.8s13-5.7,13-12.8c0-7.1-5.8-12.8-13-12.8C509.5,70.8,503.7,76.5,503.7,83.6z M459.8,54.7
	c0,7.1,5.8,12.8,13,12.8c7.2,0,13-5.7,13-12.8c0-7.1-5.8-12.8-13-12.8C465.6,41.9,459.8,47.7,459.8,54.7z M416,25.9
	c0,7.1,5.8,12.8,13,12.8s13-5.7,13-12.8c0-7.1-5.8-12.8-13-12.8C421.8,13.1,416,18.8,416,25.9z M416,83.6c0,7.1,5.8,12.8,13,12.8
	s13-5.7,13-12.8c0-7.1-5.8-12.8-13-12.8C421.8,70.8,416,76.5,416,83.6z M240.7,83.6c0,7.1,5.8,12.8,13,12.8c7.2,0,13-5.7,13-12.8
	c0-7.1-5.8-12.8-13-12.8C246.5,70.8,240.7,76.5,240.7,83.6z M240.7,141.2c0,7.1,5.8,12.8,13,12.8c7.2,0,13-5.7,13-12.8
	c0-7.1-5.8-12.8-13-12.8C246.5,128.4,240.7,134.2,240.7,141.2z M196.9,112.4c0,7.1,5.8,12.8,13,12.8s13-5.7,13-12.8
	c0-7.1-5.8-12.8-13-12.8S196.9,105.3,196.9,112.4z M153,83.6c0,7.1,5.8,12.8,13,12.8s13-5.7,13-12.8c0-7.1-5.8-12.8-13-12.8
	C158.8,70.8,153,76.5,153,83.6z M153,141.2c0,7.1,5.8,12.8,13,12.8s13-5.7,13-12.8c0-7.1-5.8-12.8-13-12.8
	C158.8,128.4,153,134.2,153,141.2z M328.3,83.6c0,7.1,5.8,12.8,13,12.8s13-5.7,13-12.8c0-7.1-5.8-12.8-13-12.8
	C334.2,70.8,328.3,76.5,328.3,83.6z M328.3,141.2c0,7.1,5.8,12.8,13,12.8s13-5.7,13-12.8c0-7.1-5.8-12.8-13-12.8
	C334.2,128.4,328.3,134.2,328.3,141.2z M284.5,112.4c0,7.1,5.8,12.8,13,12.8s13-5.7,13-12.8c0-7.1-5.8-12.8-13-12.8
	S284.5,105.3,284.5,112.4z M240.7,83.6c0,7.1,5.8,12.8,13,12.8c7.2,0,13-5.7,13-12.8c0-7.1-5.8-12.8-13-12.8
	C246.5,70.8,240.7,76.5,240.7,83.6z M240.7,141.2c0,7.1,5.8,12.8,13,12.8c7.2,0,13-5.7,13-12.8c0-7.1-5.8-12.8-13-12.8
	C246.5,128.4,240.7,134.2,240.7,141.2z M416,83.6c0,7.1,5.8,12.8,13,12.8s13-5.7,13-12.8c0-7.1-5.8-12.8-13-12.8
	C421.8,70.8,416,76.5,416,83.6z M416,141.2c0,7.1,5.8,12.8,13,12.8s13-5.7,13-12.8c0-7.1-5.8-12.8-13-12.8
	C421.8,128.4,416,134.2,416,141.2z M372.2,112.4c0,7.1,5.8,12.8,13,12.8s13-5.7,13-12.8c0-7.1-5.8-12.8-13-12.8
	S372.2,105.3,372.2,112.4z M328.3,83.6c0,7.1,5.8,12.8,13,12.8s13-5.7,13-12.8c0-7.1-5.8-12.8-13-12.8
	C334.2,70.8,328.3,76.5,328.3,83.6z M328.3,141.2c0,7.1,5.8,12.8,13,12.8s13-5.7,13-12.8c0-7.1-5.8-12.8-13-12.8
	C334.2,128.4,328.3,134.2,328.3,141.2z M503.7,83.6c0,7.1,5.8,12.8,13,12.8s13-5.7,13-12.8c0-7.1-5.8-12.8-13-12.8
	C509.5,70.8,503.7,76.5,503.7,83.6z M503.7,141.2c0,7.1,5.8,12.8,13,12.8s13-5.7,13-12.8c0-7.1-5.8-12.8-13-12.8
	C509.5,128.4,503.7,134.2,503.7,141.2z M459.8,112.4c0,7.1,5.8,12.8,13,12.8c7.2,0,13-5.7,13-12.8c0-7.1-5.8-12.8-13-12.8
	C465.6,99.6,459.8,105.3,459.8,112.4z M416,83.6c0,7.1,5.8,12.8,13,12.8s13-5.7,13-12.8c0-7.1-5.8-12.8-13-12.8
	C421.8,70.8,416,76.5,416,83.6z M416,141.2c0,7.1,5.8,12.8,13,12.8s13-5.7,13-12.8c0-7.1-5.8-12.8-13-12.8
	C421.8,128.4,416,134.2,416,141.2z M240.7,141.2c0,7.1,5.8,12.8,13,12.8c7.2,0,13-5.7,13-12.8c0-7.1-5.8-12.8-13-12.8
	C246.5,128.4,240.7,134.2,240.7,141.2z M240.7,198.9c0,7.1,5.8,12.8,13,12.8c7.2,0,13-5.7,13-12.8c0-7.1-5.8-12.8-13-12.8
	C246.5,186.1,240.7,191.8,240.7,198.9z M196.9,170.1c0,7.1,5.8,12.8,13,12.8s13-5.7,13-12.8c0-7.1-5.8-12.8-13-12.8
	S196.9,163,196.9,170.1z M153,141.2c0,7.1,5.8,12.8,13,12.8s13-5.7,13-12.8c0-7.1-5.8-12.8-13-12.8C158.8,128.4,153,134.2,153,141.2
	z M153,198.9c0,7.1,5.8,12.8,13,12.8s13-5.7,13-12.8c0-7.1-5.8-12.8-13-12.8C158.8,186.1,153,191.8,153,198.9z M328.3,141.2
	c0,7.1,5.8,12.8,13,12.8s13-5.7,13-12.8c0-7.1-5.8-12.8-13-12.8C334.2,128.4,328.3,134.2,328.3,141.2z M328.3,198.9
	c0,7.1,5.8,12.8,13,12.8s13-5.7,13-12.8c0-7.1-5.8-12.8-13-12.8S328.3,191.8,328.3,198.9z M284.5,170.1c0,7.1,5.8,12.8,13,12.8
	s13-5.7,13-12.8c0-7.1-5.8-12.8-13-12.8S284.5,163,284.5,170.1z M240.7,141.2c0,7.1,5.8,12.8,13,12.8c7.2,0,13-5.7,13-12.8
	c0-7.1-5.8-12.8-13-12.8C246.5,128.4,240.7,134.2,240.7,141.2z M240.7,198.9c0,7.1,5.8,12.8,13,12.8c7.2,0,13-5.7,13-12.8
	c0-7.1-5.8-12.8-13-12.8C246.5,186.1,240.7,191.8,240.7,198.9z M416,141.2c0,7.1,5.8,12.8,13,12.8s13-5.7,13-12.8
	c0-7.1-5.8-12.8-13-12.8C421.8,128.4,416,134.2,416,141.2z M416,198.9c0,7.1,5.8,12.8,13,12.8s13-5.7,13-12.8
	c0-7.1-5.8-12.8-13-12.8C421.8,186.1,416,191.8,416,198.9z M372.2,170.1c0,7.1,5.8,12.8,13,12.8s13-5.7,13-12.8
	c0-7.1-5.8-12.8-13-12.8S372.2,163,372.2,170.1z M328.3,141.2c0,7.1,5.8,12.8,13,12.8s13-5.7,13-12.8c0-7.1-5.8-12.8-13-12.8
	C334.2,128.4,328.3,134.2,328.3,141.2z M328.3,198.9c0,7.1,5.8,12.8,13,12.8s13-5.7,13-12.8c0-7.1-5.8-12.8-13-12.8
	S328.3,191.8,328.3,198.9z M503.7,141.2c0,7.1,5.8,12.8,13,12.8s13-5.7,13-12.8c0-7.1-5.8-12.8-13-12.8
	C509.5,128.4,503.7,134.2,503.7,141.2z M503.7,198.9c0,7.1,5.8,12.8,13,12.8s13-5.7,13-12.8c0-7.1-5.8-12.8-13-12.8
	S503.7,191.8,503.7,198.9z M459.8,170.1c0,7.1,5.8,12.8,13,12.8c7.2,0,13-5.7,13-12.8c0-7.1-5.8-12.8-13-12.8
	C465.6,157.3,459.8,163,459.8,170.1z M416,141.2c0,7.1,5.8,12.8,13,12.8s13-5.7,13-12.8c0-7.1-5.8-12.8-13-12.8
	C421.8,128.4,416,134.2,416,141.2z M416,198.9c0,7.1,5.8,12.8,13,12.8s13-5.7,13-12.8c0-7.1-5.8-12.8-13-12.8
	C421.8,186.1,416,191.8,416,198.9z M240.7,198.9c0,7.1,5.8,12.8,13,12.8c7.2,0,13-5.7,13-12.8c0-7.1-5.8-12.8-13-12.8
	C246.5,186.1,240.7,191.8,240.7,198.9z M240.7,256.6c0,7.1,5.8,12.8,13,12.8c7.2,0,13-5.7,13-12.8c0-7.1-5.8-12.8-13-12.8
	C246.5,243.7,240.7,249.5,240.7,256.6z M196.9,227.7c0,7.1,5.8,12.8,13,12.8s13-5.7,13-12.8c0-7.1-5.8-12.8-13-12.8
	C202.7,214.9,196.9,220.6,196.9,227.7z M153,198.9c0,7.1,5.8,12.8,13,12.8s13-5.7,13-12.8c0-7.1-5.8-12.8-13-12.8
	C158.8,186.1,153,191.8,153,198.9z M153,256.6c0,7.1,5.8,12.8,13,12.8s13-5.7,13-12.8c0-7.1-5.8-12.8-13-12.8
	C158.8,243.7,153,249.5,153,256.6z M328.3,198.9c0,7.1,5.8,12.8,13,12.8s13-5.7,13-12.8c0-7.1-5.8-12.8-13-12.8
	S328.3,191.8,328.3,198.9z M328.3,256.6c0,7.1,5.8,12.8,13,12.8s13-5.7,13-12.8c0-7.1-5.8-12.8-13-12.8S328.3,249.5,328.3,256.6z
	 M284.5,227.7c0,7.1,5.8,12.8,13,12.8s13-5.7,13-12.8c0-7.1-5.8-12.8-13-12.8C290.3,214.9,284.5,220.6,284.5,227.7z M240.7,198.9
	c0,7.1,5.8,12.8,13,12.8c7.2,0,13-5.7,13-12.8c0-7.1-5.8-12.8-13-12.8C246.5,186.1,240.7,191.8,240.7,198.9z M240.7,256.6
	c0,7.1,5.8,12.8,13,12.8c7.2,0,13-5.7,13-12.8c0-7.1-5.8-12.8-13-12.8C246.5,243.7,240.7,249.5,240.7,256.6z M416,198.9
	c0,7.1,5.8,12.8,13,12.8s13-5.7,13-12.8c0-7.1-5.8-12.8-13-12.8C421.8,186.1,416,191.8,416,198.9z M416,256.6
	c0,7.1,5.8,12.8,13,12.8s13-5.7,13-12.8c0-7.1-5.8-12.8-13-12.8C421.8,243.7,416,249.5,416,256.6z M372.2,227.7
	c0,7.1,5.8,12.8,13,12.8s13-5.7,13-12.8c0-7.1-5.8-12.8-13-12.8C378,214.9,372.2,220.6,372.2,227.7z M328.3,198.9
	c0,7.1,5.8,12.8,13,12.8s13-5.7,13-12.8c0-7.1-5.8-12.8-13-12.8S328.3,191.8,328.3,198.9z M328.3,256.6c0,7.1,5.8,12.8,13,12.8
	s13-5.7,13-12.8c0-7.1-5.8-12.8-13-12.8S328.3,249.5,328.3,256.6z M503.7,198.9c0,7.1,5.8,12.8,13,12.8s13-5.7,13-12.8
	c0-7.1-5.8-12.8-13-12.8S503.7,191.8,503.7,198.9z M503.7,256.6c0,7.1,5.8,12.8,13,12.8s13-5.7,13-12.8c0-7.1-5.8-12.8-13-12.8
	S503.7,249.5,503.7,256.6z M459.8,227.7c0,7.1,5.8,12.8,13,12.8c7.2,0,13-5.7,13-12.8c0-7.1-5.8-12.8-13-12.8
	C465.6,214.9,459.8,220.6,459.8,227.7z M416,198.9c0,7.1,5.8,12.8,13,12.8s13-5.7,13-12.8c0-7.1-5.8-12.8-13-12.8
	C421.8,186.1,416,191.8,416,198.9z M416,256.6c0,7.1,5.8,12.8,13,12.8s13-5.7,13-12.8c0-7.1-5.8-12.8-13-12.8
	C421.8,243.7,416,249.5,416,256.6z M240.7,256.6c0,7.1,5.8,12.8,13,12.8c7.2,0,13-5.7,13-12.8c0-7.1-5.8-12.8-13-12.8
	C246.5,243.7,240.7,249.5,240.7,256.6z M240.7,314.2c0,7.1,5.8,12.8,13,12.8c7.2,0,13-5.7,13-12.8c0-7.1-5.8-12.8-13-12.8
	C246.5,301.4,240.7,307.1,240.7,314.2z M196.9,285.4c0,7.1,5.8,12.8,13,12.8s13-5.7,13-12.8c0-7.1-5.8-12.8-13-12.8
	S196.9,278.3,196.9,285.4z M153,256.6c0,7.1,5.8,12.8,13,12.8s13-5.7,13-12.8c0-7.1-5.8-12.8-13-12.8
	C158.8,243.7,153,249.5,153,256.6z M153,314.2c0,7.1,5.8,12.8,13,12.8s13-5.7,13-12.8c0-7.1-5.8-12.8-13-12.8
	C158.8,301.4,153,307.1,153,314.2z M328.3,256.6c0,7.1,5.8,12.8,13,12.8s13-5.7,13-12.8c0-7.1-5.8-12.8-13-12.8
	S328.3,249.5,328.3,256.6z M328.3,314.2c0,7.1,5.8,12.8,13,12.8s13-5.7,13-12.8c0-7.1-5.8-12.8-13-12.8S328.3,307.1,328.3,314.2z
	 M284.5,285.4c0,7.1,5.8,12.8,13,12.8s13-5.7,13-12.8c0-7.1-5.8-12.8-13-12.8S284.5,278.3,284.5,285.4z M240.7,256.6
	c0,7.1,5.8,12.8,13,12.8c7.2,0,13-5.7,13-12.8c0-7.1-5.8-12.8-13-12.8C246.5,243.7,240.7,249.5,240.7,256.6z M240.7,314.2
	c0,7.1,5.8,12.8,13,12.8c7.2,0,13-5.7,13-12.8c0-7.1-5.8-12.8-13-12.8C246.5,301.4,240.7,307.1,240.7,314.2z M416,256.6
	c0,7.1,5.8,12.8,13,12.8s13-5.7,13-12.8c0-7.1-5.8-12.8-13-12.8C421.8,243.7,416,249.5,416,256.6z M416,314.2
	c0,7.1,5.8,12.8,13,12.8s13-5.7,13-12.8c0-7.1-5.8-12.8-13-12.8C421.8,301.4,416,307.1,416,314.2z M372.2,285.4
	c0,7.1,5.8,12.8,13,12.8s13-5.7,13-12.8c0-7.1-5.8-12.8-13-12.8S372.2,278.3,372.2,285.4z M328.3,256.6c0,7.1,5.8,12.8,13,12.8
	s13-5.7,13-12.8c0-7.1-5.8-12.8-13-12.8S328.3,249.5,328.3,256.6z M328.3,314.2c0,7.1,5.8,12.8,13,12.8s13-5.7,13-12.8
	c0-7.1-5.8-12.8-13-12.8S328.3,307.1,328.3,314.2z M503.7,256.6c0,7.1,5.8,12.8,13,12.8s13-5.7,13-12.8c0-7.1-5.8-12.8-13-12.8
	S503.7,249.5,503.7,256.6z M503.7,314.2c0,7.1,5.8,12.8,13,12.8s13-5.7,13-12.8c0-7.1-5.8-12.8-13-12.8S503.7,307.1,503.7,314.2z
	 M459.8,285.4c0,7.1,5.8,12.8,13,12.8c7.2,0,13-5.7,13-12.8c0-7.1-5.8-12.8-13-12.8C465.6,272.6,459.8,278.3,459.8,285.4z
	 M416,256.6c0,7.1,5.8,12.8,13,12.8s13-5.7,13-12.8c0-7.1-5.8-12.8-13-12.8C421.8,243.7,416,249.5,416,256.6z M416,314.2
	c0,7.1,5.8,12.8,13,12.8s13-5.7,13-12.8c0-7.1-5.8-12.8-13-12.8C421.8,301.4,416,307.1,416,314.2z M240.7,314.2
	c0,7.1,5.8,12.8,13,12.8c7.2,0,13-5.7,13-12.8c0-7.1-5.8-12.8-13-12.8C246.5,301.4,240.7,307.1,240.7,314.2z M240.7,371.9
	c0,7.1,5.8,12.8,13,12.8c7.2,0,13-5.7,13-12.8c0-7.1-5.8-12.8-13-12.8C246.5,359.1,240.7,364.8,240.7,371.9z M196.9,343
	c0,7.1,5.8,12.8,13,12.8s13-5.7,13-12.8c0-7.1-5.8-12.8-13-12.8S196.9,336,196.9,343z M153,314.2c0,7.1,5.8,12.8,13,12.8
	s13-5.7,13-12.8c0-7.1-5.8-12.8-13-12.8C158.8,301.4,153,307.1,153,314.2z M153,371.9c0,7.1,5.8,12.8,13,12.8s13-5.7,13-12.8
	c0-7.1-5.8-12.8-13-12.8C158.8,359.1,153,364.8,153,371.9z M328.3,314.2c0,7.1,5.8,12.8,13,12.8s13-5.7,13-12.8
	c0-7.1-5.8-12.8-13-12.8S328.3,307.1,328.3,314.2z M328.3,371.9c0,7.1,5.8,12.8,13,12.8s13-5.7,13-12.8c0-7.1-5.8-12.8-13-12.8
	S328.3,364.8,328.3,371.9z M284.5,343c0,7.1,5.8,12.8,13,12.8s13-5.7,13-12.8c0-7.1-5.8-12.8-13-12.8S284.5,336,284.5,343z
	 M240.7,314.2c0,7.1,5.8,12.8,13,12.8c7.2,0,13-5.7,13-12.8c0-7.1-5.8-12.8-13-12.8C246.5,301.4,240.7,307.1,240.7,314.2z
	 M240.7,371.9c0,7.1,5.8,12.8,13,12.8c7.2,0,13-5.7,13-12.8c0-7.1-5.8-12.8-13-12.8C246.5,359.1,240.7,364.8,240.7,371.9z
	 M416,314.2c0,7.1,5.8,12.8,13,12.8s13-5.7,13-12.8c0-7.1-5.8-12.8-13-12.8C421.8,301.4,416,307.1,416,314.2z M416,371.9
	c0,7.1,5.8,12.8,13,12.8s13-5.7,13-12.8c0-7.1-5.8-12.8-13-12.8C421.8,359.1,416,364.8,416,371.9z M372.2,343
	c0,7.1,5.8,12.8,13,12.8s13-5.7,13-12.8c0-7.1-5.8-12.8-13-12.8S372.2,336,372.2,343z M328.3,314.2c0,7.1,5.8,12.8,13,12.8
	s13-5.7,13-12.8c0-7.1-5.8-12.8-13-12.8S328.3,307.1,328.3,314.2z M328.3,371.9c0,7.1,5.8,12.8,13,12.8s13-5.7,13-12.8
	c0-7.1-5.8-12.8-13-12.8S328.3,364.8,328.3,371.9z M503.7,314.2c0,7.1,5.8,12.8,13,12.8s13-5.7,13-12.8c0-7.1-5.8-12.8-13-12.8
	S503.7,307.1,503.7,314.2z M503.7,371.9c0,7.1,5.8,12.8,13,12.8s13-5.7,13-12.8c0-7.1-5.8-12.8-13-12.8S503.7,364.8,503.7,371.9z
	 M459.8,343c0,7.1,5.8,12.8,13,12.8c7.2,0,13-5.7,13-12.8c0-7.1-5.8-12.8-13-12.8C465.6,330.2,459.8,336,459.8,343z M416,314.2
	c0,7.1,5.8,12.8,13,12.8s13-5.7,13-12.8c0-7.1-5.8-12.8-13-12.8C421.8,301.4,416,307.1,416,314.2z M416,371.9
	c0,7.1,5.8,12.8,13,12.8s13-5.7,13-12.8c0-7.1-5.8-12.8-13-12.8C421.8,359.1,416,364.8,416,371.9z M240.7,371.9
	c0,7.1,5.8,12.8,13,12.8c7.2,0,13-5.7,13-12.8c0-7.1-5.8-12.8-13-12.8C246.5,359.1,240.7,364.8,240.7,371.9z M240.7,429.5
	c0,7.1,5.8,12.8,13,12.8c7.2,0,13-5.7,13-12.8c0-7.1-5.8-12.8-13-12.8C246.5,416.7,240.7,422.5,240.7,429.5z M196.9,400.7
	c0,7.1,5.8,12.8,13,12.8s13-5.7,13-12.8c0-7.1-5.8-12.8-13-12.8S196.9,393.6,196.9,400.7z M153,371.9c0,7.1,5.8,12.8,13,12.8
	s13-5.7,13-12.8c0-7.1-5.8-12.8-13-12.8C158.8,359.1,153,364.8,153,371.9z M153,429.5c0,7.1,5.8,12.8,13,12.8s13-5.7,13-12.8
	c0-7.1-5.8-12.8-13-12.8C158.8,416.7,153,422.5,153,429.5z M328.3,371.9c0,7.1,5.8,12.8,13,12.8s13-5.7,13-12.8
	c0-7.1-5.8-12.8-13-12.8S328.3,364.8,328.3,371.9z M328.3,429.5c0,7.1,5.8,12.8,13,12.8s13-5.7,13-12.8c0-7.1-5.8-12.8-13-12.8
	S328.3,422.5,328.3,429.5z M284.5,400.7c0,7.1,5.8,12.8,13,12.8s13-5.7,13-12.8c0-7.1-5.8-12.8-13-12.8S284.5,393.6,284.5,400.7z
	 M240.7,371.9c0,7.1,5.8,12.8,13,12.8c7.2,0,13-5.7,13-12.8c0-7.1-5.8-12.8-13-12.8C246.5,359.1,240.7,364.8,240.7,371.9z
	 M240.7,429.5c0,7.1,5.8,12.8,13,12.8c7.2,0,13-5.7,13-12.8c0-7.1-5.8-12.8-13-12.8C246.5,416.7,240.7,422.5,240.7,429.5z
	 M416,371.9c0,7.1,5.8,12.8,13,12.8s13-5.7,13-12.8c0-7.1-5.8-12.8-13-12.8C421.8,359.1,416,364.8,416,371.9z M416,429.5
	c0,7.1,5.8,12.8,13,12.8s13-5.7,13-12.8c0-7.1-5.8-12.8-13-12.8C421.8,416.7,416,422.5,416,429.5z M372.2,400.7
	c0,7.1,5.8,12.8,13,12.8s13-5.7,13-12.8c0-7.1-5.8-12.8-13-12.8S372.2,393.6,372.2,400.7z M328.3,371.9c0,7.1,5.8,12.8,13,12.8
	s13-5.7,13-12.8c0-7.1-5.8-12.8-13-12.8S328.3,364.8,328.3,371.9z M328.3,429.5c0,7.1,5.8,12.8,13,12.8s13-5.7,13-12.8
	c0-7.1-5.8-12.8-13-12.8S328.3,422.5,328.3,429.5z M503.7,371.9c0,7.1,5.8,12.8,13,12.8s13-5.7,13-12.8c0-7.1-5.8-12.8-13-12.8
	S503.7,364.8,503.7,371.9z M503.7,429.5c0,7.1,5.8,12.8,13,12.8s13-5.7,13-12.8c0-7.1-5.8-12.8-13-12.8S503.7,422.5,503.7,429.5z
	 M459.8,400.7c0,7.1,5.8,12.8,13,12.8c7.2,0,13-5.7,13-12.8c0-7.1-5.8-12.8-13-12.8C465.6,387.9,459.8,393.6,459.8,400.7z
	 M416,371.9c0,7.1,5.8,12.8,13,12.8s13-5.7,13-12.8c0-7.1-5.8-12.8-13-12.8C421.8,359.1,416,364.8,416,371.9z M416,429.5
	c0,7.1,5.8,12.8,13,12.8s13-5.7,13-12.8c0-7.1-5.8-12.8-13-12.8C421.8,416.7,416,422.5,416,429.5z M240.7,429.5
	c0,7.1,5.8,12.8,13,12.8c7.2,0,13-5.7,13-12.8c0-7.1-5.8-12.8-13-12.8C246.5,416.7,240.7,422.5,240.7,429.5z M240.7,487.2
	c0,7.1,5.8,12.8,13,12.8c7.2,0,13-5.7,13-12.8c0-7.1-5.8-12.8-13-12.8C246.5,474.4,240.7,480.1,240.7,487.2z M196.9,458.4
	c0,7.1,5.8,12.8,13,12.8s13-5.7,13-12.8c0-7.1-5.8-12.8-13-12.8S196.9,451.3,196.9,458.4z M153,429.5c0,7.1,5.8,12.8,13,12.8
	s13-5.7,13-12.8c0-7.1-5.8-12.8-13-12.8C158.8,416.7,153,422.5,153,429.5z M153,487.2c0,7.1,5.8,12.8,13,12.8s13-5.7,13-12.8
	c0-7.1-5.8-12.8-13-12.8C158.8,474.4,153,480.1,153,487.2z M328.3,429.5c0,7.1,5.8,12.8,13,12.8s13-5.7,13-12.8
	c0-7.1-5.8-12.8-13-12.8S328.3,422.5,328.3,429.5z M328.3,487.2c0,7.1,5.8,12.8,13,12.8s13-5.7,13-12.8c0-7.1-5.8-12.8-13-12.8
	S328.3,480.1,328.3,487.2z M284.5,458.4c0,7.1,5.8,12.8,13,12.8s13-5.7,13-12.8c0-7.1-5.8-12.8-13-12.8S284.5,451.3,284.5,458.4z
	 M240.7,429.5c0,7.1,5.8,12.8,13,12.8c7.2,0,13-5.7,13-12.8c0-7.1-5.8-12.8-13-12.8C246.5,416.7,240.7,422.5,240.7,429.5z
	 M240.7,487.2c0,7.1,5.8,12.8,13,12.8c7.2,0,13-5.7,13-12.8c0-7.1-5.8-12.8-13-12.8C246.5,474.4,240.7,480.1,240.7,487.2z
	 M416,429.5c0,7.1,5.8,12.8,13,12.8s13-5.7,13-12.8c0-7.1-5.8-12.8-13-12.8C421.8,416.7,416,422.5,416,429.5z M416,487.2
	c0,7.1,5.8,12.8,13,12.8s13-5.7,13-12.8c0-7.1-5.8-12.8-13-12.8C421.8,474.4,416,480.1,416,487.2z M372.2,458.4
	c0,7.1,5.8,12.8,13,12.8s13-5.7,13-12.8c0-7.1-5.8-12.8-13-12.8S372.2,451.3,372.2,458.4z M328.3,429.5c0,7.1,5.8,12.8,13,12.8
	s13-5.7,13-12.8c0-7.1-5.8-12.8-13-12.8S328.3,422.5,328.3,429.5z M328.3,487.2c0,7.1,5.8,12.8,13,12.8s13-5.7,13-12.8
	c0-7.1-5.8-12.8-13-12.8S328.3,480.1,328.3,487.2z M503.7,429.5c0,7.1,5.8,12.8,13,12.8s13-5.7,13-12.8c0-7.1-5.8-12.8-13-12.8
	S503.7,422.5,503.7,429.5z M503.7,487.2c0,7.1,5.8,12.8,13,12.8s13-5.7,13-12.8c0-7.1-5.8-12.8-13-12.8S503.7,480.1,503.7,487.2z
	 M459.8,458.4c0,7.1,5.8,12.8,13,12.8c7.2,0,13-5.7,13-12.8c0-7.1-5.8-12.8-13-12.8C465.6,445.6,459.8,451.3,459.8,458.4z
	 M416,429.5c0,7.1,5.8,12.8,13,12.8s13-5.7,13-12.8c0-7.1-5.8-12.8-13-12.8C421.8,416.7,416,422.5,416,429.5z M416,487.2
	c0,7.1,5.8,12.8,13,12.8s13-5.7,13-12.8c0-7.1-5.8-12.8-13-12.8C421.8,474.4,416,480.1,416,487.2z M240.7,487.2
	c0,7.1,5.8,12.8,13,12.8c7.2,0,13-5.7,13-12.8c0-7.1-5.8-12.8-13-12.8C246.5,474.4,240.7,480.1,240.7,487.2z M240.7,544.9
	c0,7.1,5.8,12.8,13,12.8c7.2,0,13-5.7,13-12.8c0-7.1-5.8-12.8-13-12.8C246.5,532,240.7,537.8,240.7,544.9z M196.9,516
	c0,7.1,5.8,12.8,13,12.8s13-5.7,13-12.8c0-7.1-5.8-12.8-13-12.8S196.9,509,196.9,516z M153,487.2c0,7.1,5.8,12.8,13,12.8
	s13-5.7,13-12.8c0-7.1-5.8-12.8-13-12.8C158.8,474.4,153,480.1,153,487.2z M153,544.9c0,7.1,5.8,12.8,13,12.8s13-5.7,13-12.8
	c0-7.1-5.8-12.8-13-12.8C158.8,532,153,537.8,153,544.9z M328.3,487.2c0,7.1,5.8,12.8,13,12.8s13-5.7,13-12.8
	c0-7.1-5.8-12.8-13-12.8S328.3,480.1,328.3,487.2z M328.3,544.9c0,7.1,5.8,12.8,13,12.8s13-5.7,13-12.8c0-7.1-5.8-12.8-13-12.8
	S328.3,537.8,328.3,544.9z M284.5,516c0,7.1,5.8,12.8,13,12.8s13-5.7,13-12.8c0-7.1-5.8-12.8-13-12.8S284.5,509,284.5,516z
	 M240.7,487.2c0,7.1,5.8,12.8,13,12.8c7.2,0,13-5.7,13-12.8c0-7.1-5.8-12.8-13-12.8C246.5,474.4,240.7,480.1,240.7,487.2z
	 M240.7,544.9c0,7.1,5.8,12.8,13,12.8c7.2,0,13-5.7,13-12.8c0-7.1-5.8-12.8-13-12.8C246.5,532,240.7,537.8,240.7,544.9z M416,487.2
	c0,7.1,5.8,12.8,13,12.8s13-5.7,13-12.8c0-7.1-5.8-12.8-13-12.8C421.8,474.4,416,480.1,416,487.2z M416,544.9
	c0,7.1,5.8,12.8,13,12.8s13-5.7,13-12.8c0-7.1-5.8-12.8-13-12.8C421.8,532,416,537.8,416,544.9z M372.2,516c0,7.1,5.8,12.8,13,12.8
	s13-5.7,13-12.8c0-7.1-5.8-12.8-13-12.8S372.2,509,372.2,516z M328.3,487.2c0,7.1,5.8,12.8,13,12.8s13-5.7,13-12.8
	c0-7.1-5.8-12.8-13-12.8S328.3,480.1,328.3,487.2z M328.3,544.9c0,7.1,5.8,12.8,13,12.8s13-5.7,13-12.8c0-7.1-5.8-12.8-13-12.8
	S328.3,537.8,328.3,544.9z M503.7,487.2c0,7.1,5.8,12.8,13,12.8s13-5.7,13-12.8c0-7.1-5.8-12.8-13-12.8S503.7,480.1,503.7,487.2z
	 M503.7,544.9c0,7.1,5.8,12.8,13,12.8s13-5.7,13-12.8c0-7.1-5.8-12.8-13-12.8S503.7,537.8,503.7,544.9z M459.8,516
	c0,7.1,5.8,12.8,13,12.8c7.2,0,13-5.7,13-12.8c0-7.1-5.8-12.8-13-12.8C465.6,503.2,459.8,509,459.8,516z M416,487.2
	c0,7.1,5.8,12.8,13,12.8s13-5.7,13-12.8c0-7.1-5.8-12.8-13-12.8C421.8,474.4,416,480.1,416,487.2z M416,544.9
	c0,7.1,5.8,12.8,13,12.8s13-5.7,13-12.8c0-7.1-5.8-12.8-13-12.8C421.8,532,416,537.8,416,544.9z M240.6,26.5c0,7.1,5.8,12.8,13,12.8
	c7.2,0,13-5.7,13-12.8c0-7.1-5.8-12.8-13-12.8C246.4,13.7,240.6,19.5,240.6,26.5z"/>
</svg>
